<svg xmlns="http://www.w3.org/2000/svg" viewBox="0 0 251.99 87.55">
  <defs>
    <style>.cls-1{fill:#fff;}.cls-2{fill:#c7eafb;}.cls-3{fill:#44c8f5;}.cls-4{fill:#231f20;}.cls-5{fill:#00a2e5;}.cls-6,.cls-7,.cls-8{fill:none;stroke:#231f20;stroke-linecap:round;}.cls-6{stroke-width:0.41px;}.cls-7{stroke-width:0.75px;}.cls-8{stroke-miterlimit:1;stroke-width:0.9px;stroke-dasharray:2.1 2.1 2.1 2.1 2.1 2.1;}</style>
  </defs>
  <title>Danet_Logo_SVG</title>
  <g id="Layer_2" data-name="Layer 2">
    <polygon class="cls-1" points="236.65 0.36 224.25 12.2 238.38 21.71 250.88 10.14 236.65 0.36"/>
    <polygon class="cls-1" points="236.57 53.14 224.17 64.98 238.3 74.49 250.8 62.93 236.57 53.14"/>
    <polygon class="cls-1" points="210.65 27.27 198.25 39.12 212.38 48.63 224.88 37.06 210.65 27.27"/>
    <polygon class="cls-2" points="225.77 48.75 213.3 60.62 212.4 48.94 224.88 37.06 225.77 48.75"/>
    <polygon class="cls-3" points="213.3 60.62 199.15 50.8 198.25 39.12 212.4 48.94 213.3 60.62"/>
    <path class="cls-4" d="M213.51,60.76,226,48.85l-.89-11.69h0l0-.23,0,0-.23-.15L210.7,26.93l-.14.14L198.22,38.81l0,0L198,39l0,.13v.1l.9,11.69,14.18,9.82m12.43-12.1-12,11.44L213.42,59l-.76-10,1.82-1.73,10.21-9.71C224.75,38.51,225.51,48.44,225.52,48.65Zm-14.78-21.1,13.75,9.53-.13.12-12,11.41L199,39.35l-.37-.26ZM199.38,50.67c0-.21-.78-10.15-.85-11.07L202,42l10.21,7.08L213,60.14Z"/>
    <polygon class="cls-2" points="251.59 21.82 239.11 33.69 238.22 22 250.69 10.13 251.59 21.82"/>
    <polygon class="cls-3" points="239.11 33.69 224.96 23.87 224.06 12.18 238.22 22 239.11 33.69"/>
    <path class="cls-4" d="M239.32,33.82l12.51-11.91-.9-11.69h0l0-.23,0,0-.23-.15L236.51,0l-.14.14L224,11.87l0,0-.19.17,0,.13v.1L224.72,24l14.19,9.82m12.43-12.1-12,11.44-.08-1.11c-.22-2.81-.75-9.78-.76-10l1.82-1.73,10.21-9.71C250.56,11.57,251.32,21.51,251.34,21.72ZM236.56.62l13.75,9.53-.13.12-12,11.41-13.37-9.28-.37-.26ZM225.19,23.74c0-.21-.78-10.15-.85-11.07l3.43,2.38L238,22.13l.85,11.07Z"/>
    <path class="cls-4" d="M0,6.21H12.5q12.1,0,16.36,1.11A12.56,12.56,0,0,1,35.35,11a11.55,11.55,0,0,1,2.78,5.65,85.17,85.17,0,0,1,.56,12.22V51.28q0,8.64-.81,11.55A8.69,8.69,0,0,1,35,67.39a11.79,11.79,0,0,1-5,2.3,45.13,45.13,0,0,1-9,.65H0Zm16.69,11V59.38q3.63,0,4.47-1.45T22,50.07V25.13a33.35,33.35,0,0,0-.28-5.59,2.66,2.66,0,0,0-1.28-1.8A8.35,8.35,0,0,0,16.69,17.16Z"/>
    <path class="cls-4" d="M75.33,6.21l9.54,64.13h-17L67,58.79H60.84l-.93,11.54H42.7L51.19,6.21ZM66.5,47.41q-1.21-10.89-2.57-27-2.54,18.45-3.21,27Z"/>
    <path class="cls-4" d="M126.58,6.21V70.34H112l-8.68-29.15V70.34h-14V6.21h13.9l9.35,28.88V6.21Z"/>
    <path class="cls-4" d="M131.66,6.21h27.81V19H148.35V31.15h10.45V43.37H148.35V57.53h12.3V70.34h-29Z"/>
    <path class="cls-4" d="M200.63,6.21V19h-9.86V70.34H174.09V19h-9.86V6.21Z"/>
    <path class="cls-5" d="M7.12,76.72H1V75.39H14.83v1.33H8.75v10.7H7.12Z"/>
    <path class="cls-5" d="M19.7,75.39H31.51v1.33H21.33v3.84h9.79v1.33H21.33v4.2H31.58v1.33H19.7Z"/>
    <path class="cls-5" d="M36.73,79.76c0-3,1-4.5,4.29-4.5h6.23c3,0,3.77,1.38,3.77,3v1H49.58v-.55c0-2-1.26-2.14-2.76-2.14H41.18c-1.56,0-2.82.46-2.82,2.56v4.52c0,2.09,1.26,2.56,2.82,2.56h5.7c2.19,0,2.82-.47,2.82-2.09v-.75h1.53v.81c0,2.18-.7,3.35-4.07,3.35H41c-3.26,0-4.29-1.46-4.29-4.5Z"/>
    <path class="cls-5" d="M56.84,75.39h1.63v5.17H69.34V75.39H71v12H69.34V81.88H58.47v5.53H56.84Z"/>
    <path class="cls-5" d="M77,75.39h2.43L90.49,86V75.39h1.63v12H89.69l-11-10.57V87.42H77Z"/>
    <path class="cls-5" d="M97.88,79.76c0-3,1-4.5,4.29-4.5h6.93c3.26,0,4.29,1.46,4.29,4.5V83c0,3-1,4.5-4.29,4.5h-6.93c-3.26,0-4.29-1.46-4.29-4.5Zm13.87-.61c0-2.09-1.26-2.56-2.82-2.56h-6.6c-1.56,0-2.82.46-2.82,2.56v4.52c0,2.09,1.26,2.56,2.82,2.56h6.6c1.56,0,2.82-.47,2.82-2.56Z"/>
    <path class="cls-5" d="M119.24,75.39h1.63v10.7h9.34v1.33h-11Z"/>
    <path class="cls-5" d="M134,79.76c0-3,1-4.5,4.28-4.5h6.93c3.26,0,4.29,1.46,4.29,4.5V83c0,3-1,4.5-4.29,4.5h-6.93C135,87.55,134,86.09,134,83Zm13.87-.61c0-2.09-1.26-2.56-2.82-2.56h-6.6c-1.56,0-2.82.46-2.82,2.56v4.52c0,2.09,1.26,2.56,2.82,2.56H145c1.56,0,2.82-.47,2.82-2.56Z"/>
    <path class="cls-5" d="M169.75,83.11c0,3.27-1.06,4.43-4.07,4.43H159c-3.26,0-4.29-1.46-4.29-4.5V79.76c0-3,1-4.5,4.29-4.5h6.15c2.16,0,4.47.53,4.47,3.3V79h-1.53c0-2.24-.68-2.41-4.7-2.41h-4.22c-1.56,0-2.82.46-2.82,2.56v4.52c0,2.09,1.26,2.56,2.82,2.56h6.36c1.63,0,2.63-.57,2.63-2.23V82.78H162V81.45h7.79Z"/>
    <path class="cls-5" d="M181.21,82.33l-6.89-6.94h2.19L182,81l5.52-5.58h2.19l-6.89,6.94v5.09h-1.63Z"/>
    <path class="cls-6" d="M179.09,22.36"/>
    <polygon class="cls-2" points="251.74 74.58 239.27 86.45 238.37 74.77 250.84 62.89 251.74 74.58"/>
    <polygon class="cls-3" points="239.27 86.45 225.11 76.64 224.22 64.95 238.37 74.77 239.27 86.45"/>
    <path class="cls-4" d="M239.48,86.59,252,74.68,251.1,63h0l0-.23,0,0-.23-.15-14.16-9.82-.14.14L224.19,64.64l0,0-.19.17,0,.12v.1l.9,11.69,14.18,9.82m12.43-12.1-12,11.45-.09-1.11c-.22-2.81-.75-9.78-.76-10l1.82-1.73,10.21-9.71Zm-14.78-21.1,13.75,9.53-.12.12-12,11.41L225,65.18l-.37-.26ZM225.34,76.5c0-.21-.78-10.15-.85-11.07l3.43,2.38,10.21,7.08L239,86Z"/>
    <line class="cls-7" x1="219.4" y1="49.53" x2="230.72" y2="58.3"/>
    <line class="cls-8" x1="220.14" y1="32.56" x2="230.84" y2="22.7"/>
  </g>
</svg>